<?xml version="1.0" encoding="UTF-8"?>
<svg width="242px" height="64px" viewBox="0 0 242 64" version="1.1" xmlns="http://www.w3.org/2000/svg" xmlns:xlink="http://www.w3.org/1999/xlink">
    <!-- Generator: Sketch 57.1 (83088) - https://sketch.com -->
    <title>payhere-logo</title>
    <desc>Created with Sketch.</desc>
    <g id="Logos" stroke="none" stroke-width="1" fill="none" fill-rule="evenodd">
        <g id="payhere-logo" fill="#004DC9">
            <path d="M2.283,0.03 L18.675,0.03 C19.275,0.03 19.787,0.373 20.017,0.927 C20.246,1.481 20.126,2.085 19.702,2.509 L3.31,18.901 C2.886,19.325 2.282,19.445 1.727,19.216 C1.173,18.986 0.831,18.474 0.831,17.874 L0.831,1.482 C0.831,0.683 1.483,0.03 2.283,0.03 Z M28.117,0.029 C31.352,0.023 34.094,-0.009 37.358,0.921 C47.193,3.724 54.449,12.815 54.449,23.518 C54.449,36.437 43.879,47.006 30.961,47.006 L14.098,47.006 L24.319,50.356 L24.319,62.52 C24.319,63.32 23.666,63.972 22.867,63.972 L2.283,63.972 C1.483,63.972 0.831,63.32 0.831,62.52 L0.831,27.319 C0.831,26.919 0.974,26.575 1.256,26.292 L27.094,0.455 C27.375,0.173 27.718,0.03 28.117,0.029 L28.117,0.029 Z" id="Fill-1"></path>
            <path d="M75.371,52.899 C75.371,53.345 75.62,53.598 76.07,53.598 L79.266,53.598 C79.716,53.598 79.965,53.349 79.965,52.899 L79.965,41.089 C81.263,42.787 84.06,43.536 85.758,43.536 C91.601,43.536 96.146,39.89 96.146,32.949 C96.146,26.507 91.601,22.362 85.758,22.362 C79.915,22.362 75.371,26.009 75.371,32.949 L75.371,52.899 Z M79.965,32.949 C79.965,27.955 83.211,26.756 85.758,26.756 C88.305,26.756 91.551,27.955 91.551,32.949 C91.551,37.943 88.305,39.141 85.758,39.141 C83.211,39.141 79.965,37.943 79.965,32.949 Z M121.614,33.148 C121.614,25.957 117.07,22.362 111.227,22.362 C105.334,22.362 100.64,26.357 100.64,33.099 C100.64,38.492 104.036,43.486 110.228,43.486 C112.176,43.486 115.322,42.886 117.02,40.24 L117.02,42.237 C117.02,42.687 117.27,42.937 117.719,42.937 L120.916,42.937 C121.365,42.937 121.614,42.687 121.614,42.237 L121.614,33.148 Z M117.02,33.099 C117.02,38.043 113.124,39.441 110.628,39.291 C108.081,39.141 105.284,37.543 105.284,32.949 C105.284,28.255 108.68,26.756 111.227,26.756 C113.774,26.756 117.02,27.955 117.02,33.099 Z M134.573,53.506 C134.975,53.646 135.313,53.576 135.521,53.106 L148.582,23.61 C148.736,23.262 148.531,22.961 148.182,22.961 L144.587,22.961 C144.137,22.961 143.787,23.161 143.588,23.61 L137.495,37.643 L131.452,23.61 C131.303,23.161 130.953,22.961 130.503,22.961 L126.808,22.961 C126.458,22.961 126.259,23.26 126.409,23.61 L134.998,42.937 L131.226,51.558 C131.037,51.991 131.174,52.316 131.576,52.457 L134.573,53.506 Z M163.863,26.756 C166.16,26.756 168.857,27.555 168.857,32.349 L168.857,42.237 C168.857,42.687 169.106,42.937 169.556,42.937 L172.752,42.937 C173.201,42.937 173.451,42.687 173.451,42.237 L173.451,32.349 C173.451,25.558 169.406,22.362 163.863,22.362 C161.516,22.362 159.718,23.211 158.469,24.559 L158.469,10.838 C158.469,10.389 158.219,10.139 157.77,10.139 L154.574,10.139 C154.126,10.139 153.875,10.39 153.875,10.838 L153.875,42.237 C153.875,42.686 154.125,42.937 154.574,42.937 L157.77,42.937 C158.22,42.937 158.469,42.687 158.469,42.237 L158.469,32 C158.619,27.755 161.616,26.756 163.863,26.756 Z M199.47,32.949 C199.47,26.007 194.925,22.362 189.082,22.362 C183.239,22.362 178.695,26.007 178.695,32.949 C178.695,39.89 183.239,43.536 189.082,43.536 C192.678,43.536 195.624,42.237 197.472,39.691 C197.722,39.341 197.572,38.941 197.222,38.792 L194.276,37.493 C193.876,37.293 193.477,37.443 193.127,37.693 C191.979,38.841 190.43,39.141 189.082,39.141 C186.685,39.141 183.689,38.093 183.289,33.798 L198.72,33.798 C199.12,33.798 199.47,33.498 199.47,33.099 L199.47,32.949 Z M183.639,30.452 C184.538,27.555 187.034,26.756 189.082,26.756 C191.13,26.756 193.626,27.555 194.526,30.452 L183.639,30.452 Z M217.497,23.86 C217.647,23.46 217.348,23.111 216.948,22.961 C215.7,22.611 214.451,22.462 213.252,22.462 C208.658,22.462 204.963,24.709 204.963,30.901 L204.963,42.237 C204.963,42.687 205.212,42.937 205.662,42.937 L208.858,42.937 C209.307,42.937 209.557,42.687 209.557,42.237 L209.557,30.901 C209.557,27.705 211.555,26.906 213.752,26.906 C214.551,26.906 215.35,27.006 216.199,27.156 C216.599,27.306 216.948,27.006 216.998,26.607 L217.497,23.86 Z M241.169,32.949 C241.169,26.007 236.624,22.362 230.781,22.362 C224.939,22.362 220.394,26.007 220.394,32.949 C220.394,39.89 224.939,43.536 230.781,43.536 C234.377,43.536 237.323,42.237 239.171,39.691 C239.421,39.341 239.271,38.941 238.921,38.792 L235.975,37.493 C235.576,37.293 235.176,37.443 234.826,37.693 C233.678,38.841 232.129,39.141 230.781,39.141 C228.384,39.141 225.388,38.093 224.988,33.798 L240.42,33.798 C240.819,33.798 241.169,33.498 241.169,33.099 L241.169,32.949 Z M225.338,30.452 C226.237,27.555 228.734,26.756 230.781,26.756 C232.829,26.756 235.326,27.555 236.225,30.452 L225.338,30.452 L225.338,30.452 Z" id="Fill-2"></path>
        </g>
    </g>
</svg>