<?xml version="1.0" encoding="UTF-8" standalone="no"?>
<svg width="90px" height="83px" viewBox="0 0 90 83" version="1.1" xmlns="http://www.w3.org/2000/svg" xmlns:xlink="http://www.w3.org/1999/xlink" xmlns:sketch="http://www.bohemiancoding.com/sketch/ns">
    <!-- Generator: Sketch 3.3.3 (12072) - http://www.bohemiancoding.com/sketch -->
    <title>logo</title>
    <desc>Created with Sketch.</desc>
    <defs></defs>
    <g id="Page-1" stroke="none" stroke-width="1" fill="none" fill-rule="evenodd" sketch:type="MSPage">
        <g id="Desktop" sketch:type="MSArtboardGroup" transform="translate(-210.000000, -37.000000)" fill="#1D1D1B">
            <g id="logo" sketch:type="MSLayerGroup" transform="translate(210.000000, 37.000000)">
                <g id="Group" sketch:type="MSShapeGroup">
                    <path d="M37.1011488,55.0102089 L38.7011749,55.0102089 L37.8958747,50.9832376 L37.1011488,55.0102089 Z" id="Shape"></path>
                    <path d="M52.8779373,50.148094 C52.8779373,48.0665796 52.1974151,47.898094 51.3756658,47.898094 L50.4500522,47.898094 L50.4500522,52.397859 L51.3756658,52.397859 C52.1184595,52.397859 52.8779373,52.1316188 52.8779373,50.148094 L52.8779373,50.148094 Z" id="Shape"></path>
                    <path d="M51.3759008,54.1555614 L50.4502872,54.1555614 L50.4502872,59.1177807 L51.3759008,59.1177807 C52.2815405,59.1177807 53.0313838,58.9302611 53.0313838,56.6365535 C53.0313838,54.4377807 52.1471279,54.1555614 51.3759008,54.1555614 L51.3759008,54.1555614 Z" id="Shape"></path>
                    <path d="M23.8192167,30.7917493 L25.4192428,30.7917493 L24.6127676,26.7671279 L23.8192167,30.7917493 Z" id="Shape"></path>
                    <path d="M88.667389,0.0733159269 L1.51637076,0.0733159269 C0.781331593,0.0733159269 0.182819843,0.669007833 0.182819843,1.40498695 L0.182819843,81.5092167 C0.182819843,82.2454308 0.781331593,82.8418277 1.51637076,82.8418277 L88.667389,82.8418277 C89.4024282,82.8418277 90,82.2454308 90,81.5092167 L90,1.40498695 C90,0.668772846 89.4024282,0.0733159269 88.667389,0.0733159269 L88.667389,0.0733159269 Z M35.3328721,22.4569974 C35.3328721,22.1630287 35.5734987,21.924282 35.8665274,21.924282 L36.6346997,21.924282 C36.9286684,21.924282 37.1676501,22.1630287 37.1676501,22.4569974 L37.1676501,34.8995561 L40.2824021,34.8995561 C40.5763708,34.8995561 40.8151175,35.1392428 40.8151175,35.4341514 L40.8151175,36.1245431 C40.8151175,36.4185117 40.5766057,36.6591384 40.2824021,36.6591384 L35.8665274,36.6591384 C35.5737337,36.6591384 35.3328721,36.4185117 35.3328721,36.1245431 L35.3328721,22.4569974 L35.3328721,22.4569974 Z M27.6191906,60.3406527 C27.6191906,60.6357963 27.3804439,60.8743081 27.0864752,60.8743081 L22.6708355,60.8743081 C22.3768668,60.8743081 22.1381201,60.6355614 22.1381201,60.3406527 L22.1381201,46.673107 C22.1381201,46.3789034 22.3766319,46.1403916 22.6708355,46.1403916 L23.4378329,46.1403916 C23.7339164,46.1403916 23.9726632,46.3789034 23.9726632,46.673107 L23.9726632,59.1177807 L27.0862402,59.1177807 C27.3802089,59.1177807 27.6189556,59.3565274 27.6189556,59.6504961 L27.6189556,60.3406527 L27.6191906,60.3406527 Z M27.8779112,36.6593734 C27.8779112,36.6593734 27.8746214,36.6572585 27.8736815,36.6593734 L27.0277285,36.6593734 C26.7741775,36.6593734 26.5546997,36.4805483 26.5058225,36.2291123 L25.7653786,32.5496867 L23.454752,32.5496867 L22.7326371,36.2269974 C22.6837598,36.4784334 22.4663969,36.6593734 22.2107311,36.6593734 L21.365953,36.6593734 C21.204047,36.6593734 21.0517755,36.5848825 20.951436,36.4591645 C20.8489817,36.3343864 20.8106789,36.1713055 20.843812,36.0136292 L23.7809138,22.3439687 C23.8342559,22.0998172 24.0516188,21.924282 24.3030548,21.924282 L24.9932115,21.924282 C25.2458225,21.924282 25.4631854,22.1000522 25.5153525,22.3484334 L28.3789034,35.9433681 C28.4002872,35.9988251 28.4110966,36.0606266 28.4110966,36.1245431 C28.4106266,36.4187467 28.1730548,36.6593734 27.8779112,36.6593734 L27.8779112,36.6593734 Z M41.1610183,60.8745431 L41.1558486,60.8745431 L40.3098956,60.8745431 C40.0563446,60.8745431 39.8380418,60.695483 39.7879896,60.4463969 L39.0487206,56.7669713 L36.7369191,56.7669713 L36.0157441,60.444282 C35.9668668,60.6943081 35.747154,60.8745431 35.4926632,60.8745431 L34.6478851,60.8745431 C34.4869191,60.8745431 34.3337076,60.8019321 34.2336031,60.6762141 C34.1323238,60.551671 34.092846,60.3867102 34.1269191,60.2299739 L37.0640209,46.5612533 C37.116188,46.3152219 37.3333159,46.1406266 37.5849869,46.1406266 L38.2753786,46.1406266 C38.5289295,46.1406266 38.7462924,46.3173368 38.7984595,46.5647781 L41.6629504,60.1597128 C41.6822193,60.2149347 41.6937337,60.2767363 41.6937337,60.3408877 C41.6934987,60.6357963 41.4549869,60.8745431 41.1610183,60.8745431 L41.1610183,60.8745431 Z M46.7440731,23.6810444 C46.4503394,23.6810444 46.2104178,23.4432376 46.2104178,23.147154 L46.2104178,22.4569974 C46.2104178,22.1630287 46.4503394,21.924282 46.7440731,21.924282 L52.0813316,21.924282 C52.3753003,21.924282 52.614047,22.1630287 52.614047,22.4569974 L52.614047,23.147154 C52.614047,23.4432376 52.3753003,23.6810444 52.0813316,23.6810444 L50.3299739,23.6810444 L50.3299739,36.1245431 C50.3299739,36.4185117 50.0912272,36.6591384 49.7972585,36.6591384 L49.0281462,36.6591384 C48.7341775,36.6591384 48.4956658,36.4185117 48.4956658,36.1245431 L48.4956658,23.6810444 L46.7440731,23.6810444 L46.7440731,23.6810444 Z M53.8900261,59.9444648 C53.2520366,60.6050131 52.4850392,60.8745431 51.2417232,60.8745431 L49.1493995,60.8745431 C48.8542559,60.8745431 48.6157441,60.6357963 48.6157441,60.3408877 L48.6157441,46.673107 C48.6157441,46.3789034 48.8542559,46.1403916 49.1493995,46.1403916 L51.2607572,46.1403916 C52.3026893,46.1403916 53.1399478,46.3013577 53.8451436,47.0852742 C54.5738381,47.8875196 54.7113055,48.7814099 54.7113055,50.148094 C54.7113055,51.0812272 54.6335248,52.1548825 53.7109661,53.0776762 C53.6663185,53.1223238 53.621436,53.1648564 53.5746736,53.207624 C53.657859,53.2673107 53.7365796,53.333342 53.8134204,53.405718 C54.7390339,54.3325065 54.8659269,55.5055614 54.8659269,56.6367885 C54.8656919,58.356188 54.6198956,59.1901567 53.8900261,59.9444648 L53.8900261,59.9444648 Z M65.1646997,52.2082245 L66.5678068,52.7834726 C68.4150392,53.532611 68.5675457,55.133577 68.5675457,56.8487467 C68.5675457,58.446658 68.2712272,59.435248 67.5737859,60.155248 C67.0102872,60.7178068 66.2538642,60.9906266 65.2511749,60.9906266 C64.2372063,60.9906266 63.4744386,60.7178068 62.9172846,60.1618277 C62.2015144,59.4234987 61.973342,58.661906 61.973342,57.0214621 C61.973342,56.7251436 62.2120888,56.4868668 62.5069974,56.4868668 L63.2751697,56.4868668 C63.5693734,56.4868668 63.8078851,56.7253786 63.8078851,57.0214621 C63.8078851,58.2072063 63.9625065,58.5853003 64.2470757,58.8696345 C64.4717232,59.094517 64.818094,59.2138903 65.2511749,59.2138903 C65.7256136,59.2138903 66.0555352,59.1050914 66.2644386,58.8837337 C66.6279634,58.5192689 66.7332376,58.0516449 66.7332376,56.8680157 C66.7332376,55.1262924 66.4573629,54.7331593 65.5655875,54.3646997 L64.1657702,53.7894517 C62.3932637,53.0619321 62.0692167,51.9083812 62.0692167,49.8990078 C62.0692167,48.581436 62.4125326,47.5681723 63.09,46.8916449 C63.665248,46.3175718 64.4237859,46.025483 65.3484595,46.025483 C66.2834726,46.025483 67.0772585,46.3257963 67.6449869,46.8916449 C68.418329,47.6887206 68.5675457,48.5619321 68.5675457,49.8033681 C68.5675457,50.0973368 68.328799,50.3370235 68.0348303,50.3370235 L67.266658,50.3370235 C66.9738642,50.3370235 66.7330026,50.0973368 66.7330026,49.8033681 C66.7330026,48.9447258 66.618094,48.51 66.2921671,48.1415405 C66.1568146,47.988094 65.9074935,47.7836554 65.3289556,47.7836554 C64.8049347,47.7836554 64.5520888,47.9638903 64.4063969,48.0990078 C64.080235,48.4143603 63.9032898,49.032376 63.9032898,49.8802089 C63.9035248,51.4562663 64.0696606,51.7608094 65.1646997,52.2082245 L65.1646997,52.2082245 Z M68.5675457,35.8966057 C68.5675457,36.1905744 68.328799,36.4293211 68.0348303,36.4293211 L58.1510444,36.4293211 C57.8568407,36.4293211 57.618329,36.1908094 57.618329,35.8966057 L57.618329,35.2830548 C57.618329,34.9879112 57.8568407,34.7493995 58.1510444,34.7493995 L68.0348303,34.7493995 C68.328799,34.7493995 68.5675457,34.9879112 68.5675457,35.2830548 L68.5675457,35.8966057 L68.5675457,35.8966057 Z" id="Shape"></path>
                </g>
            </g>
        </g>
    </g>
</svg>