<?xml version="1.0" encoding="UTF-8"?>
<svg width="144px" height="172px" viewBox="0 0 144 172" version="1.1" xmlns="http://www.w3.org/2000/svg" xmlns:xlink="http://www.w3.org/1999/xlink">
    <!-- Generator: Sketch 60.1 (88133) - https://sketch.com -->
    <title>payhere-icon-blue</title>
    <desc>Created with Sketch.</desc>
    <g id="Page-1" stroke="none" stroke-width="1" fill="none" fill-rule="evenodd">
        <g id="payhere-icon-blue" fill="#4B5563">
            <path d="M3.9,0.00758224 L47.923,0.00758224 C49.533,0.00758224 50.909,0.926582 51.526,2.41458 C52.142,3.90358 51.82,5.52558 50.68,6.66458 L6.657,50.6886 C5.518,51.8276 3.896,52.1496 2.407,51.5336 C0.919,50.9176 0,49.5416 0,47.9306 L0,3.90758 C0,1.75958 1.752,0.00758224 3.9,0.00758224 Z M73.281,0.00458224 C81.968,-0.0124178 89.333,-0.0984178 98.099,2.40058 C124.514,9.92758 144,34.3426 144,63.0886 C144,97.7836 115.613,126.169 80.92,126.169 L35.632,126.169 L63.08,135.167 L63.08,167.835 C63.08,169.983 61.328,171.735 59.181,171.735 L3.9,171.735 C1.752,171.735 0,169.983 0,167.835 L0,73.2956 C0,72.2206 0.383,71.2966 1.142,70.5376 L70.532,1.14758 C71.289,0.390582 72.21,0.00758224 73.281,0.00458224 Z" id="payhere_icon"></path>
        </g>
    </g>
</svg>